<svg xmlns="http://www.w3.org/2000/svg">
    <symbol id="external-link" viewBox="0 0 24 24">
        <path
            d="M 5 3 C 3.9069372 3 3 3.9069372 3 5 L 3 19 C 3 20.093063 3.9069372 21 5 21 L 19 21 C 20.093063 21 21 20.093063 21 19 L 21 12 L 19 12 L 19 19 L 5 19 L 5 5 L 12 5 L 12 3 L 5 3 z M 14 3 L 14 5 L 17.585938 5 L 8.2929688 14.292969 L 9.7070312 15.707031 L 19 6.4140625 L 19 10 L 21 10 L 21 3 L 14 3 z"
        />
    </symbol>
    <symbol id="single-bed" viewBox="0 0 426.667 426.667">
        <g>
            <g>
                <path
                    d="M405.333,256c-5.888,0-10.667,4.779-10.667,10.667v64c0,5.888,4.779,10.667,10.667,10.667
                    c5.888,0,10.667-4.779,10.667-10.667v-64C416,260.779,411.221,256,405.333,256z"
                />
            </g>
        </g>
        <g>
            <g>
                <path
                    d="M21.333,256c-5.888,0-10.667,4.779-10.667,10.667v64c0,5.888,4.779,10.667,10.667,10.667S32,336.555,32,330.667v-64
                    C32,260.779,27.221,256,21.333,256z"
                />
            </g>
        </g>
        <g>
            <g>
                <path
                    d="M415.104,326.421c-0.021-0.021,0-0.064-0.021-0.085l-78.656-177.003h-37.76c-1.429,0-2.773-0.299-4.032-0.811l0.939,7.509
                    c1.131,9.109-1.685,18.261-7.765,25.152c-6.08,6.891-14.805,10.816-23.979,10.816H162.837c-9.173,0-17.92-3.947-24-10.816
                    c-6.059-6.891-8.896-16.043-7.744-25.152l0.939-7.509c-1.259,0.512-2.603,0.811-4.032,0.811H90.24L11.563,326.336
                    c-0.021,0.021,0,0.064-0.021,0.085c-0.533,1.301-0.875,2.731-0.875,4.245v64V416c0,5.888,4.779,10.667,10.667,10.667
                    S32,421.888,32,416v-10.667h362.667V416c0,5.888,4.779,10.667,10.667,10.667c5.888,0,10.667-4.779,10.667-10.667v-21.333v-64
                    C416,329.152,415.659,327.723,415.104,326.421z M384,341.333H42.667c-5.888,0-10.667-4.779-10.667-10.667
                    C32,324.779,36.779,320,42.667,320H384c5.888,0,10.667,4.779,10.667,10.667C394.667,336.555,389.888,341.333,384,341.333z"
                />
            </g>
        </g>
        <g>
            <g>
                <path
                    d="M274.411,158.677l-5.333-42.667c-0.661-5.333-5.205-9.344-10.581-9.344h-90.325c-5.376,0-9.92,4.011-10.581,9.344
                    l-5.333,42.667c-0.384,3.093,0.533,6.059,2.581,8.384c2.048,2.325,4.885,3.605,8,3.605h100.992c3.115,0,5.952-1.28,8-3.605
                    C273.877,164.736,274.795,161.749,274.411,158.677z"
                />
            </g>
        </g>
        <g>
            <g>
                <path
                    d="M277.333,0h-128C119.936,0,96,23.936,96,53.333V128h32c2.411,0,4.523,0.939,6.293,2.283l2.112-16.917
                    c2.005-15.979,15.659-28.032,31.765-28.032h90.325c16.107,0,29.76,12.053,31.744,28.032l2.112,16.917
                    c1.792-1.344,3.904-2.283,6.315-2.283h32V53.333C330.667,23.936,306.731,0,277.333,0z"
                />
            </g>
        </g>
        <g></g>
        <g></g>
        <g></g>
        <g></g>
        <g></g>
        <g></g>
        <g></g>
        <g></g>
        <g></g>
        <g></g>
        <g></g>
        <g></g>
        <g></g>
        <g></g>
        <g></g>
    </symbol>
    <symbol id="bath" viewBox="0 0 512 512">
        <g>
            <g>
                <path
                    d="M480,255.051H32c-17.643,0-32,14.357-32,32c0,17.643,14.357,32,32,32h448c17.643,0,32-14.357,32-32
                    C512,269.408,497.643,255.051,480,255.051z"
                />
            </g>
        </g>
        <g>
            <g>
                <path
                    d="M482.944,298.123c-5.781-1.621-11.584,1.664-13.184,7.339l-0.832,2.923H43.093l-0.853-2.923
                    c-1.6-5.675-7.445-8.917-13.184-7.339c-5.675,1.621-8.939,7.531-7.317,13.184l29.397,102.912
                    c9.109,31.893,38.635,54.165,71.787,54.165h266.133c33.173,0,62.677-22.272,71.787-54.165l29.397-102.912
                    C491.883,305.653,488.597,299.744,482.944,298.123z M122.944,425.717c-14.208,0-26.88-9.536-30.763-23.211l-13.845-48.512
                    c-1.621-5.675,1.664-11.563,7.317-13.184c5.717-1.621,11.584,1.685,13.184,7.339l13.845,48.512
                    c1.323,4.544,5.525,7.744,10.261,7.744c5.888,0,10.667,4.779,10.667,10.667C133.611,420.96,128.832,425.717,122.944,425.717z"
                />
            </g>
        </g>
        <g>
            <g>
                <path
                    d="M143.424,448.16c-5.269-2.581-11.648-0.512-14.315,4.779l-21.333,42.667c-2.624,5.269-0.491,11.669,4.779,14.315
                    c1.557,0.768,3.179,1.131,4.779,1.131c3.904,0,7.659-2.155,9.536-5.909l21.333-42.667
                    C150.827,457.205,148.693,450.805,143.424,448.16z"
                />
            </g>
        </g>
        <g>
            <g>
                <path
                    d="M404.224,495.627l-21.333-42.667c-2.645-5.291-9.045-7.403-14.315-4.779c-5.269,2.645-7.403,9.045-4.779,14.315
                    l21.333,42.667c1.877,3.733,5.632,5.888,9.536,5.888c1.6,0,3.221-0.363,4.779-1.109
                    C404.715,507.296,406.848,500.896,404.224,495.627z"
                />
            </g>
        </g>
        <g>
            <g>
                <path
                    d="M428.48,0.949c-10.88,0-21.12,4.245-28.821,11.947l-33.856,33.856c-4.16,4.16-4.16,10.923,0,15.083
                    c4.16,4.16,10.923,4.16,15.083,0L414.741,28c3.648-3.669,8.533-5.696,13.845-5.696c10.709,0,19.413,8.704,19.413,19.413v224
                    c0,5.888,4.779,10.667,10.667,10.667s10.667-4.779,10.688-10.688v-224C469.355,19.232,451.093,0.949,428.48,0.949z"
                />
            </g>
        </g>
        <g>
            <g>
                <path
                    d="M391.552,57.419l-21.333-21.333c-2.432-2.432-5.824-3.563-9.28-2.987l-53.333,8.747c-3.925,0.64-7.147,3.413-8.405,7.168
                    c-1.259,3.755-0.299,7.936,2.475,10.773l64,65.92c2.027,2.112,4.821,3.243,7.637,3.243c1.003,0,2.027-0.149,3.029-0.448
                    c3.797-1.109,6.677-4.245,7.445-8.128l10.667-53.333C395.157,63.563,394.069,59.957,391.552,57.419z"
                />
            </g>
        </g>
        <g>
            <g>
                <path
                    d="M252.864,130.187c-4.16-4.16-10.923-4.16-15.083,0l-21.333,21.333c-4.16,4.16-4.16,10.923,0,15.083
                    c2.091,2.069,4.821,3.115,7.552,3.115s5.461-1.045,7.531-3.115l21.333-21.333C257.024,141.109,257.024,134.347,252.864,130.187z"
                />
            </g>
        </g>
        <g>
            <g>
                <path
                    d="M295.531,172.853c-4.16-4.16-10.923-4.16-15.083,0l-21.333,21.333c-4.16,4.16-4.16,10.923,0,15.083
                    c2.091,2.069,4.821,3.115,7.552,3.115c2.731,0,5.461-1.045,7.531-3.115l21.333-21.333
                    C299.691,183.776,299.691,177.013,295.531,172.853z"
                />
            </g>
        </g>
        <g>
            <g>
                <path
                    d="M316.864,108.853c-4.16-4.16-10.923-4.16-15.083,0l-21.333,21.333c-4.16,4.16-4.16,10.923,0,15.083
                    c2.091,2.069,4.821,3.115,7.552,3.115s5.461-1.045,7.531-3.115l21.333-21.333C321.024,119.776,321.024,113.013,316.864,108.853z"
                />
            </g>
        </g>
        <g></g>
        <g></g>
        <g></g>
        <g></g>
        <g></g>
        <g></g>
        <g></g>
        <g></g>
        <g></g>
        <g></g>
        <g></g>
        <g></g>
        <g></g>
        <g></g>
        <g></g>
    </symbol>
    <symbol id="no-agency-records" viewBox="0 0 143.121 143.121">
        <g id="empty-house" transform="translate(-2.074 -13.892)" opacity="0.5">
            <path
                id="Trazado_59"
                data-name="Trazado 59"
                d="M91.1,2l4.617,13.85H8L12.617,2Z"
                transform="translate(10.233 14.2)"
                fill="#c9c9c9"
            />
            <path
                id="Trazado_60"
                data-name="Trazado 60"
                d="M110.186,10.308v4.617a2.315,2.315,0,0,1-2.308,2.308H6.308A2.315,2.315,0,0,1,4,14.925V10.308A2.315,2.315,0,0,1,6.308,8h101.57A2.315,2.315,0,0,1,110.186,10.308Z"
                transform="translate(5 22.051)"
                fill="#e6e9ed"
            />
            <path
                id="Trazado_61"
                data-name="Trazado 61"
                d="M11.234,32h94.644a34.447,34.447,0,0,0-23.523,9.234H4.308A2.315,2.315,0,0,1,2,38.925V34.308A2.315,2.315,0,0,1,4.308,32Z"
                transform="translate(2.383 53.452)"
                fill="#e6e9ed"
            />
            <path
                id="Trazado_62"
                data-name="Trazado 62"
                d="M102.953,12V58.26c-.762-.069-1.524-.092-2.308-.092H6V12Z"
                transform="translate(7.616 27.284)"
                fill="#8e8e8e"
            />
            <path
                id="Trazado_63"
                data-name="Trazado 63"
                d="M12,16V43.7H39.7V16H12Z"
                transform="translate(15.467 32.518)"
                fill="#e9e9e9"
            />
            <path
                id="Trazado_64"
                data-name="Trazado 64"
                d="M43.85,16H30V43.7H57.7V16Z"
                transform="translate(39.018 32.518)"
                fill="#e9e9e9"
            />
            <path
                id="Trazado_65"
                data-name="Trazado 65"
                d="M65.318,74.561H33V52.4A34.67,34.67,0,0,0,65.318,74.561Z"
                transform="translate(42.943 80.144)"
                fill="#e9e9e9"
            />
            <path
                id="Trazado_66"
                data-name="Trazado 66"
                d="M27.084,45.234H72.629A35.129,35.129,0,0,1,79.739,36H4V96.018H34.009v-27.7H69.328a34.209,34.209,0,0,1-.693-6.925c0-.785.023-1.547.092-2.308H13.234V45.234Z"
                transform="translate(5 58.686)"
                fill="#8e8e8e"
            />
            <path
                id="Trazado_67"
                data-name="Trazado 67"
                d="M52.319,50H17V77.7H53.934V55.54A34.024,34.024,0,0,1,52.319,50Z"
                transform="translate(22.009 77.004)"
                fill="#e9e9e9"
            />
            <path
                id="Trazado_68"
                data-name="Trazado 68"
                d="M49.551,40H8V53.85H63.494A34.191,34.191,0,0,1,67.4,40Z"
                transform="translate(10.233 63.92)"
                fill="#e9e9e9"
            />
            <path
                id="Trazado_69"
                data-name="Trazado 69"
                d="M66.626,32c.785,0,1.547.023,2.308.092a34.619,34.619,0,1,1-34.626,47A34.621,34.621,0,0,1,32,66.626c0-.785.023-1.547.092-2.308a34.191,34.191,0,0,1,3.9-13.85,35.129,35.129,0,0,1,7.11-9.234A34.447,34.447,0,0,1,66.626,32ZM92.018,66.626A25.231,25.231,0,0,0,87.7,52.476a24.73,24.73,0,0,0-6.925-6.925A25.383,25.383,0,0,0,45.55,80.777,24.73,24.73,0,0,0,52.476,87.7,25.383,25.383,0,0,0,92.018,66.626Z"
                transform="translate(41.635 53.452)"
                fill="#afafaf"
            />
            <path
                id="Trazado_70"
                data-name="Trazado 70"
                d="M75.543,40.317,40.317,75.543A25.383,25.383,0,0,1,75.543,40.317Z"
                transform="translate(46.868 58.686)"
                fill="#e6e9ed"
            />
            <path
                id="Trazado_71"
                data-name="Trazado 71"
                d="M76.1,40.87A25.383,25.383,0,0,1,40.87,76.1Z"
                transform="translate(53.24 65.058)"
                fill="#e6e9ed"
            />
            <path
                id="Trazado_72"
                data-name="Trazado 72"
                d="M80.021,44.8,44.8,80.021A24.729,24.729,0,0,1,37.87,73.1L73.1,37.87A24.729,24.729,0,0,1,80.021,44.8Z"
                transform="translate(49.315 61.133)"
                fill="#afafaf"
            />
            <path
                id="Trazado_73"
                data-name="Trazado 73"
                d="M111.8,70.573V28.7a4.621,4.621,0,0,0,4.617-4.617V19.467A4.621,4.621,0,0,0,111.8,14.85H106.54L101.923,1H20.111L15.494,14.85H10.234a4.621,4.621,0,0,0-4.617,4.617v4.617A4.621,4.621,0,0,0,10.234,28.7V70.252H5.617A4.621,4.621,0,0,0,1,74.869v4.617A4.621,4.621,0,0,0,5.617,84.1v60.018h101.57A36.918,36.918,0,0,0,111.8,70.573ZM23.44,5.617H98.6l3.079,9.234H20.361ZM10.234,19.467H111.8l0,4.617H10.234ZM14.85,28.7h92.336V70.252H14.85ZM5.617,74.869H89.345a37.012,37.012,0,0,0-6.507,4.617H5.617ZM10.234,84.1H78.4a37.176,37.176,0,0,0-3.151,4.617H14.85v18.467h55.4a36.712,36.712,0,0,0,.321,4.617H35.626v27.7H10.234ZM58.71,116.42H71.469a36.577,36.577,0,0,0,1.092,3.5V139.5H58.71ZM54.093,139.5H40.243V116.42h13.85Zm16.48-36.934H61.018V93.336H72.971A36.551,36.551,0,0,0,70.573,102.57Zm-51.106,0V93.336H28.7v9.234Zm13.85-9.234h9.234v9.234H33.318Zm13.85,0H56.4v9.234H47.168ZM77.177,139.5V128.636A37.14,37.14,0,0,0,89.345,139.5Zm30.009,0A32.318,32.318,0,1,1,139.5,107.186,32.353,32.353,0,0,1,107.186,139.5Z"
                transform="translate(1.074 12.892)"
            />
            <path
                id="Trazado_75"
                data-name="Trazado 75"
                d="M29,47.318H61.318V15H29Zm4.617-13.85H42.85V42.7H33.617ZM47.467,42.7V33.467H56.7V42.7ZM56.7,28.85H47.467V19.617H56.7ZM42.85,19.617V28.85H33.617V19.617Z"
                transform="translate(37.71 31.21)"
            />
            <path
                id="Trazado_76"
                data-name="Trazado 76"
                d="M11,47.318H43.318V15H11Zm4.617-13.85H24.85V42.7H15.617ZM29.467,42.7V33.467H38.7V42.7ZM38.7,28.85H29.467V19.617H38.7ZM24.85,19.617V28.85H15.617V19.617Z"
                transform="translate(14.158 31.21)"
            />
            <path
                id="Trazado_77"
                data-name="Trazado 77"
                d="M7,49h4.617v4.617H7Z"
                transform="translate(8.925 75.695)"
            />
            <path
                id="Trazado_78"
                data-name="Trazado 78"
                d="M7,57h4.617v4.617H7Z"
                transform="translate(8.925 86.162)"
            />
            <path
                id="Trazado_79"
                data-name="Trazado 79"
                d="M7,53h4.617v4.617H7Z"
                transform="translate(8.925 80.929)"
            />
            <path
                id="Trazado_74"
                data-name="Trazado 74"
                d="M62.7,35A27.7,27.7,0,1,0,90.4,62.7,27.732,27.732,0,0,0,62.7,35Zm0,4.617a22.923,22.923,0,0,1,10.395,2.5L42.117,73.1A23.041,23.041,0,0,1,62.7,39.617ZM44.668,77.073,77.073,44.668a23.27,23.27,0,0,1,3.661,3.661L48.329,80.734a23.27,23.27,0,0,1-3.661-3.661ZM62.7,85.785a22.922,22.922,0,0,1-10.395-2.5L83.283,52.308a22.878,22.878,0,0,1,2.5,10.392A23.11,23.11,0,0,1,62.7,85.785Z"
                transform="translate(45.56 57.378)"
            />
        </g>
    </symbol>
    <symbol id="calendar" viewBox="0 0 512 512">
        <path
            d="M480 128a64 64 0 00-64-64h-16V48.45c0-8.61-6.62-16-15.23-16.43A16 16 0 00368 48v16H144V48.45c0-8.61-6.62-16-15.23-16.43A16 16 0 00112 48v16H96a64 64 0 00-64 64v12a4 4 0 004 4h440a4 4 0 004-4zM32 416a64 64 0 0064 64h320a64 64 0 0064-64V180a4 4 0 00-4-4H36a4 4 0 00-4 4z"
        />
    </symbol>
</svg>
